0
SECTION
2
HEADER
9
$INSUNITS
70
4
0
ENDSEC
0
SECTION
2
TABLES
0
TABLE
2
LTYPE
0
LTYPE
72
65
70
64
2
CONTINUOUS
3
______
73
0
40
0
0
ENDTAB
0
TABLE
2
LAYER
0
ENDTAB
0
ENDSEC
0
SECTION
2
ENTITIES
0
LINE
8
0
10
31.4
20
-7.15
11
44.6
21
-7.15
0
LINE
8
0
10
31.4
20
-21.35
11
44.6
21
-21.35
0
LINE
8
0
10
30.9
20
-7.65
11
30.9
21
-20.85
0
LINE
8
0
10
45.1
20
-7.65
11
45.1
21
-20.85
0
ARC
8
0
10
31.4
20
-7.65
40
0.5
50
90
51
180
0
ARC
8
0
10
44.6
20
-7.65
40
0.5
50
0
51
90
0
ARC
8
0
10
31.4
20
-20.85
40
0.5
50
180
51
270
0
ARC
8
0
10
44.6
20
-20.85
40
0.5
50
270
51
0
0
LINE
8
0
10
50.4
20
-11.9
11
63.6
21
-11.9
0
LINE
8
0
10
50.4
20
-26.1
11
63.6
21
-26.1
0
LINE
8
0
10
49.9
20
-12.4
11
49.9
21
-25.6
0
LINE
8
0
10
64.1
20
-12.4
11
64.1
21
-25.6
0
ARC
8
0
10
50.4
20
-12.4
40
0.5
50
90
51
180
0
ARC
8
0
10
63.6
20
-12.4
40
0.5
50
0
51
90
0
ARC
8
0
10
50.4
20
-25.6
40
0.5
50
180
51
270
0
ARC
8
0
10
63.6
20
-25.6
40
0.5
50
270
51
0
0
LINE
8
0
10
69.4
20
-16.65
11
82.6
21
-16.65
0
LINE
8
0
10
69.4
20
-30.85
11
82.6
21
-30.85
0
LINE
8
0
10
68.9
20
-17.15
11
68.9
21
-30.35
0
LINE
8
0
10
83.1
20
-17.15
11
83.1
21
-30.35
0
ARC
8
0
10
69.4
20
-17.15
40
0.5
50
90
51
180
0
ARC
8
0
10
82.6
20
-17.15
40
0.5
50
0
51
90
0
ARC
8
0
10
69.4
20
-30.35
40
0.5
50
180
51
270
0
ARC
8
0
10
82.6
20
-30.35
40
0.5
50
270
51
0
0
LINE
8
0
10
31.4
20
-26.15
11
44.6
21
-26.15
0
LINE
8
0
10
31.4
20
-40.35
11
44.6
21
-40.35
0
LINE
8
0
10
30.9
20
-26.65
11
30.9
21
-39.85
0
LINE
8
0
10
45.1
20
-26.65
11
45.1
21
-39.85
0
ARC
8
0
10
31.4
20
-26.65
40
0.5
50
90
51
180
0
ARC
8
0
10
44.6
20
-26.65
40
0.5
50
0
51
90
0
ARC
8
0
10
31.4
20
-39.85
40
0.5
50
180
51
270
0
ARC
8
0
10
44.6
20
-39.85
40
0.5
50
270
51
0
0
LINE
8
0
10
50.4
20
-30.9
11
63.6
21
-30.9
0
LINE
8
0
10
50.4
20
-45.1
11
63.6
21
-45.1
0
LINE
8
0
10
49.9
20
-31.4
11
49.9
21
-44.6
0
LINE
8
0
10
64.1
20
-31.4
11
64.1
21
-44.6
0
ARC
8
0
10
50.4
20
-31.4
40
0.5
50
90
51
180
0
ARC
8
0
10
63.6
20
-31.4
40
0.5
50
0
51
90
0
ARC
8
0
10
50.4
20
-44.6
40
0.5
50
180
51
270
0
ARC
8
0
10
63.6
20
-44.6
40
0.5
50
270
51
0
0
LINE
8
0
10
69.4
20
-35.65
11
82.6
21
-35.65
0
LINE
8
0
10
69.4
20
-49.85
11
82.6
21
-49.85
0
LINE
8
0
10
68.9
20
-36.15
11
68.9
21
-49.35
0
LINE
8
0
10
83.1
20
-36.15
11
83.1
21
-49.35
0
ARC
8
0
10
69.4
20
-36.15
40
0.5
50
90
51
180
0
ARC
8
0
10
82.6
20
-36.15
40
0.5
50
0
51
90
0
ARC
8
0
10
69.4
20
-49.35
40
0.5
50
180
51
270
0
ARC
8
0
10
82.6
20
-49.35
40
0.5
50
270
51
0
0
LINE
8
0
10
12.4
20
-45.15
11
25.6
21
-45.15
0
LINE
8
0
10
12.4
20
-59.35
11
25.6
21
-59.35
0
LINE
8
0
10
11.9
20
-45.65
11
11.9
21
-58.85
0
LINE
8
0
10
26.1
20
-45.65
11
26.1
21
-58.85
0
ARC
8
0
10
12.4
20
-45.65
40
0.5
50
90
51
180
0
ARC
8
0
10
25.6
20
-45.65
40
0.5
50
0
51
90
0
ARC
8
0
10
12.4
20
-58.85
40
0.5
50
180
51
270
0
ARC
8
0
10
25.6
20
-58.85
40
0.5
50
270
51
0
0
LINE
8
0
10
31.4
20
-49.9
11
44.6
21
-49.9
0
LINE
8
0
10
31.4
20
-64.1
11
44.6
21
-64.1
0
LINE
8
0
10
30.9
20
-50.4
11
30.9
21
-63.6
0
LINE
8
0
10
45.1
20
-50.4
11
45.1
21
-63.6
0
ARC
8
0
10
31.4
20
-50.4
40
0.5
50
90
51
180
0
ARC
8
0
10
44.6
20
-50.4
40
0.5
50
0
51
90
0
ARC
8
0
10
31.4
20
-63.6
40
0.5
50
180
51
270
0
ARC
8
0
10
44.6
20
-63.6
40
0.5
50
270
51
0
0
LINE
8
0
10
50.4
20
-54.65
11
63.6
21
-54.65
0
LINE
8
0
10
50.4
20
-68.85
11
63.6
21
-68.85
0
LINE
8
0
10
49.9
20
-55.15
11
49.9
21
-68.35
0
LINE
8
0
10
64.1
20
-55.15
11
64.1
21
-68.35
0
ARC
8
0
10
50.4
20
-55.15
40
0.5
50
90
51
180
0
ARC
8
0
10
63.6
20
-55.15
40
0.5
50
0
51
90
0
ARC
8
0
10
50.4
20
-68.35
40
0.5
50
180
51
270
0
ARC
8
0
10
63.6
20
-68.35
40
0.5
50
270
51
0
0
LINE
8
0
10
69.4
20
-54.65
11
82.6
21
-54.65
0
LINE
8
0
10
69.4
20
-68.85
11
82.6
21
-68.85
0
LINE
8
0
10
68.9
20
-55.15
11
68.9
21
-68.35
0
LINE
8
0
10
83.1
20
-55.15
11
83.1
21
-68.35
0
ARC
8
0
10
69.4
20
-55.15
40
0.5
50
90
51
180
0
ARC
8
0
10
82.6
20
-55.15
40
0.5
50
0
51
90
0
ARC
8
0
10
69.4
20
-68.35
40
0.5
50
180
51
270
0
ARC
8
0
10
82.6
20
-68.35
40
0.5
50
270
51
0
0
LINE
8
0
10
12.4
20
-68.9
11
25.6
21
-68.9
0
LINE
8
0
10
12.4
20
-83.1
11
25.6
21
-83.1
0
LINE
8
0
10
11.9
20
-69.4
11
11.9
21
-82.6
0
LINE
8
0
10
26.1
20
-69.4
11
26.1
21
-82.6
0
ARC
8
0
10
12.4
20
-69.4
40
0.5
50
90
51
180
0
ARC
8
0
10
25.6
20
-69.4
40
0.5
50
0
51
90
0
ARC
8
0
10
12.4
20
-82.6
40
0.5
50
180
51
270
0
ARC
8
0
10
25.6
20
-82.6
40
0.5
50
270
51
0
0
LINE
8
0
10
31.4
20
-73.65
11
44.6
21
-73.65
0
LINE
8
0
10
31.4
20
-87.85
11
44.6
21
-87.85
0
LINE
8
0
10
30.9
20
-74.15
11
30.9
21
-87.35
0
LINE
8
0
10
45.1
20
-74.15
11
45.1
21
-87.35
0
ARC
8
0
10
31.4
20
-74.15
40
0.5
50
90
51
180
0
ARC
8
0
10
44.6
20
-74.15
40
0.5
50
0
51
90
0
ARC
8
0
10
31.4
20
-87.35
40
0.5
50
180
51
270
0
ARC
8
0
10
44.6
20
-87.35
40
0.5
50
270
51
0
0
LINE
8
0
10
50.4
20
-78.4
11
63.6
21
-78.4
0
LINE
8
0
10
50.4
20
-92.6
11
63.6
21
-92.6
0
LINE
8
0
10
49.9
20
-78.9
11
49.9
21
-92.1
0
LINE
8
0
10
64.1
20
-78.9
11
64.1
21
-92.1
0
ARC
8
0
10
50.4
20
-78.9
40
0.5
50
90
51
180
0
ARC
8
0
10
63.6
20
-78.9
40
0.5
50
0
51
90
0
ARC
8
0
10
50.4
20
-92.1
40
0.5
50
180
51
270
0
ARC
8
0
10
63.6
20
-92.1
40
0.5
50
270
51
0
0
LINE
8
0
10
69.4
20
-78.4
11
82.6
21
-78.4
0
LINE
8
0
10
69.4
20
-92.6
11
82.6
21
-92.6
0
LINE
8
0
10
68.9
20
-78.9
11
68.9
21
-92.1
0
LINE
8
0
10
83.1
20
-78.9
11
83.1
21
-92.1
0
ARC
8
0
10
69.4
20
-78.9
40
0.5
50
90
51
180
0
ARC
8
0
10
82.6
20
-78.9
40
0.5
50
0
51
90
0
ARC
8
0
10
69.4
20
-92.1
40
0.5
50
180
51
270
0
ARC
8
0
10
82.6
20
-92.1
40
0.5
50
270
51
0
0
LINE
8
0
10
9.5
20
-95
11
85.5
21
-95
0
LINE
8
0
10
9.5
20
-4.75
11
85.5
21
-4.75
0
LINE
8
0
10
9.5
20
-95
11
9.5
21
-4.75
0
LINE
8
0
10
85.5
20
-95
11
85.5
21
-4.75
0
ENDSEC
0
EOF